<?xml version="1.0" standalone="no"?>
<!DOCTYPE svg PUBLIC "-//W3C//DTD SVG 20010904//EN"
 "http://www.w3.org/TR/2001/REC-SVG-20010904/DTD/svg10.dtd">
<svg version="1.0" xmlns="http://www.w3.org/2000/svg"
 width="1424.000000pt" height="1424.000000pt" viewBox="0 0 1424.000000 1424.000000"
 preserveAspectRatio="xMidYMid meet">
<metadata>
Created by potrace 1.14, written by Peter Selinger 2001-2017
</metadata>
<g transform="translate(0.000000,1424.000000) scale(0.100000,-0.100000)"
fill="#000000" stroke="none">
<path d="M8861 9659 c-69 -42 -100 -111 -96 -211 1 -31 -1 -56 -4 -56 -3 1
-28 -1 -54 -6 -37 -6 -57 -16 -88 -47 -21 -21 -40 -47 -40 -56 -1 -10 -3 -29
-4 -42 -7 -69 53 -153 146 -202 141 -75 261 -254 281 -418 3 -27 -7 -28 -69
-4 -108 39 -296 101 -365 119 -58 15 -156 20 -203 10 -11 -2 -40 -7 -65 -11
-65 -11 -69 -12 -135 -33 -152 -51 -212 -114 -201 -212 14 -123 128 -173 331
-145 75 10 209 11 255 1 19 -4 41 -8 48 -8 6 -1 12 -4 12 -8 0 -3 26 -21 58
-40 31 -19 59 -38 60 -42 2 -5 8 -8 13 -8 5 0 26 -11 47 -23 20 -13 54 -30 75
-38 20 -7 37 -17 37 -22 0 -4 5 -5 10 -2 20 13 21 -25 1 -46 -11 -12 -26 -47
-32 -78 -12 -54 -24 -71 -87 -123 -42 -34 -127 -88 -139 -88 -7 0 -13 -4 -13
-10 0 -5 -11 -10 -24 -10 -14 0 -28 -5 -31 -10 -4 -6 -11 -8 -16 -5 -5 4 -9 2
-9 -3 0 -10 -8 -11 -83 -13 -31 -1 -66 5 -83 14 -65 34 -150 150 -160 221 -9
58 -12 71 -19 91 -42 119 -127 209 -220 233 -42 11 -151 4 -189 -12 -32 -13
-38 -20 -34 -40 9 -45 -17 -17 -51 57 -39 82 -150 354 -155 377 -2 8 -8 28
-15 43 -6 16 -20 61 -30 100 -28 105 -49 155 -96 222 -23 33 -57 89 -77 125
-74 136 -91 165 -104 181 -8 8 -14 20 -14 26 0 6 -3 13 -8 15 -4 2 -22 26 -39
53 l-33 50 0 -50 c-3 -283 1 -2409 4 -2412 10 -11 213 70 227 90 3 5 8 8 10 6
9 -6 88 52 128 92 49 50 67 86 77 149 3 25 7 50 8 55 1 6 8 37 15 70 15 67 60
194 90 252 10 21 20 43 21 48 1 6 11 22 21 37 15 21 20 45 20 107 1 150 36 73
43 -95 2 -38 11 -86 20 -105 23 -48 208 -294 281 -373 6 -6 24 -31 40 -56 73
-110 208 -217 335 -268 54 -21 165 -49 205 -51 92 -5 260 1 260 9 0 1 16 4 35
6 94 10 100 13 101 53 0 20 0 577 1 1238 l0 1201 -34 38 c-97 109 -138 129
-197 93z"/>
<path d="M3969 9406 c-2 -2 -46 -7 -97 -10 -51 -4 -118 -14 -150 -22 -31 -9
-67 -18 -78 -20 -63 -12 -197 -79 -279 -140 -162 -119 -270 -267 -337 -461
-16 -48 -31 -95 -32 -103 -2 -8 -9 -46 -17 -85 -14 -76 -19 -363 -7 -460 4
-33 15 -89 23 -125 19 -79 85 -250 96 -250 5 0 9 -7 9 -15 0 -51 183 -255 292
-325 60 -39 175 -98 208 -106 8 -2 40 -10 70 -19 95 -26 181 -36 300 -35 63 0
126 2 140 4 14 2 45 7 68 11 114 17 286 89 384 161 74 55 154 140 209 223 47
72 104 195 113 243 3 12 5 23 6 23 2 0 10 53 13 80 2 19 -5 20 -198 23 -299 3
-319 2 -321 -15 -1 -7 -2 -14 -3 -15 -2 -2 -4 -13 -7 -26 -17 -91 -134 -212
-236 -243 -142 -43 -313 -24 -417 46 -162 108 -234 281 -235 560 0 138 8 207
38 300 30 93 77 171 141 232 162 153 470 152 620 -2 25 -26 45 -53 45 -61 0
-8 4 -14 9 -14 10 0 45 -107 43 -132 0 -10 5 -19 11 -19 60 -6 503 -3 508 4 6
9 -4 74 -25 162 -58 245 -278 479 -526 560 -30 10 -64 21 -75 25 -38 15 -130
30 -209 35 -43 3 -82 7 -86 10 -4 2 -9 3 -11 1z"/>
<path d="M59 9370 l-36 -5 0 -1052 c0 -750 3 -1053 11 -1056 10 -3 465 -1 491
2 7 1 10 207 10 610 0 483 3 607 12 604 7 -3 13 -9 13 -13 0 -5 6 -15 13 -22
7 -7 57 -78 112 -158 124 -182 139 -204 145 -210 3 -3 23 -32 45 -65 22 -33
43 -64 48 -70 4 -5 18 -26 31 -45 82 -120 183 -267 236 -340 33 -47 63 -92 67
-100 4 -8 9 -17 12 -20 4 -3 24 -32 46 -65 22 -33 51 -71 65 -85 l25 -25 210
0 210 0 1 1058 0 1057 -65 0 c-272 2 -433 0 -439 -4 -4 -2 -7 -273 -7 -601 0
-328 -3 -601 -6 -607 -4 -6 -36 32 -71 83 -207 299 -378 551 -378 559 0 4 -7
10 -15 14 -8 3 -15 10 -15 17 0 6 -13 28 -28 48 -16 20 -32 44 -35 54 -4 9
-11 17 -17 17 -5 0 -10 4 -10 10 0 7 -257 388 -275 408 -5 5 -370 7 -406 2z"/>
<path d="M2243 9372 l-93 -3 0 -87 c0 -151 -1 -1608 0 -1822 l0 -205 255 0
255 0 0 55 c1 73 1 1996 0 2035 l0 30 -163 0 c-89 0 -204 -1 -254 -3z"/>
<path d="M5287 9372 l-87 -3 -1 -97 c0 -135 1 -164 7 -173 2 -4 1 -10 -4 -13
-5 -3 -7 -20 -6 -38 2 -18 3 -67 3 -108 0 -72 2 -268 3 -300 0 -8 0 -55 -1
-105 0 -49 0 -99 0 -110 -1 -50 0 -252 1 -265 0 -8 0 -55 -1 -105 0 -49 0 -99
0 -110 -1 -50 0 -252 1 -265 0 -8 0 -55 -1 -105 0 -49 0 -99 0 -110 0 -11 -1
-60 -1 -109 -1 -49 3 -92 8 -95 6 -3 338 -6 739 -6 l728 0 1 208 2 207 -483 0
-482 0 0 218 0 217 443 0 c289 0 444 3 445 10 6 73 2 398 -5 403 -5 3 -205 6
-445 6 l-436 1 -1 215 -1 215 481 0 481 0 1 208 2 207 -47 0 c-297 3 -1277 4
-1344 2z"/>
<path d="M977 6734 c-1 -1 -33 -4 -72 -8 -146 -13 -223 -34 -375 -104 -49 -22
-132 -81 -197 -138 -166 -146 -287 -387 -320 -634 -9 -67 -9 -336 0 -405 30
-239 122 -441 273 -597 139 -144 353 -250 554 -276 110 -14 400 -5 430 13 3 2
20 7 36 10 16 3 34 7 41 9 7 1 16 5 19 9 4 4 13 7 20 7 23 0 126 51 199 99
198 130 327 341 361 596 8 63 12 412 5 423 -3 4 -209 8 -458 8 l-451 0 0 -186
0 -186 197 -1 c108 -1 202 -2 209 -2 16 -1 15 -27 -2 -94 -19 -74 -37 -105
-88 -153 -78 -75 -172 -109 -312 -113 -292 -9 -474 170 -514 502 -13 105 -7
266 12 352 1 6 6 26 10 45 15 63 79 182 128 235 55 61 165 120 243 131 138 20
272 -3 350 -61 65 -49 79 -66 119 -151 l25 -50 248 1 c136 1 252 3 257 4 12 2
-1 76 -28 155 -28 83 -102 208 -154 261 -51 52 -121 115 -129 115 -5 0 -19 9
-30 19 -47 44 -266 133 -363 147 -81 12 -236 23 -243 18z"/>
<path d="M7459 6728 c-48 -4 -106 -12 -130 -18 -24 -6 -57 -13 -72 -16 -54
-10 -192 -75 -272 -129 -91 -61 -192 -159 -248 -243 -69 -101 -148 -289 -163
-387 -3 -16 -7 -41 -9 -55 -41 -242 -11 -546 71 -728 13 -29 24 -56 24 -60 0
-4 26 -48 58 -97 60 -92 150 -192 212 -235 19 -13 41 -30 48 -37 7 -7 20 -13
28 -13 8 0 14 -4 14 -10 0 -5 6 -10 13 -10 7 0 19 -6 26 -12 6 -7 15 -13 19
-14 4 0 25 -8 47 -18 58 -25 154 -56 195 -62 19 -3 55 -10 80 -14 25 -5 113
-7 195 -5 185 4 289 26 430 92 196 92 353 265 423 469 23 67 22 63 47 209 8
45 8 396 0 403 -4 4 -209 7 -456 7 -445 1 -449 1 -450 -20 -1 -27 -1 -316 0
-336 1 -14 23 -16 189 -15 237 2 233 2 226 -38 -3 -17 -7 -40 -8 -51 -5 -36
-43 -110 -76 -148 -75 -86 -195 -128 -353 -123 -122 3 -144 8 -222 46 -89 44
-148 105 -200 208 -14 29 -28 60 -30 70 -3 9 -13 51 -23 93 -27 110 -26 357 1
444 2 6 7 26 11 45 9 37 67 160 88 186 75 89 161 144 256 165 68 14 170 18
211 7 18 -6 42 -11 52 -13 87 -17 191 -107 228 -196 l23 -55 258 0 c227 0 258
2 255 16 -1 8 -6 33 -10 55 -5 22 -9 46 -11 54 -5 23 -47 125 -69 163 -56 99
-202 248 -275 281 -14 6 -27 14 -30 18 -10 13 -146 72 -194 86 -157 42 -276
54 -427 41z"/>
<path d="M13357 6734 c-1 -1 -38 -4 -82 -8 -213 -15 -429 -113 -558 -253 -23
-25 -44 -50 -46 -57 -2 -6 -7 -13 -10 -16 -14 -11 -52 -98 -70 -158 -23 -75
-26 -236 -6 -311 19 -71 60 -150 103 -197 44 -48 134 -116 180 -135 17 -8 32
-17 32 -21 0 -5 8 -8 18 -8 10 0 22 -4 28 -9 14 -13 162 -62 204 -66 8 -1 25
-5 37 -9 12 -4 30 -8 40 -10 10 -2 75 -18 145 -36 248 -61 335 -117 345 -223
8 -81 -42 -154 -132 -194 -67 -30 -94 -35 -201 -35 -132 -1 -225 32 -295 104
-40 40 -69 94 -76 142 -3 17 -6 36 -6 41 -1 6 -7 12 -14 15 -9 4 -414 5 -469
1 -15 -1 -9 -86 12 -189 16 -80 67 -194 108 -243 13 -15 26 -32 28 -37 5 -13
131 -115 169 -137 37 -21 171 -74 204 -81 37 -7 60 -12 85 -18 66 -15 117 -19
255 -20 135 0 199 4 275 19 14 2 39 7 55 11 39 7 106 31 174 61 221 98 350
299 349 544 0 160 -51 290 -153 394 -54 55 -82 76 -167 129 -64 39 -209 87
-375 126 -278 64 -338 86 -396 144 -33 33 -63 112 -48 126 3 3 7 18 8 33 3 44
47 92 110 124 54 26 67 28 178 28 105 0 127 -3 173 -24 69 -31 126 -96 142
-161 l12 -50 245 0 246 0 -6 63 c-4 34 -11 77 -16 95 -5 18 -11 36 -12 40 -31
121 -146 264 -268 336 -69 40 -164 82 -202 90 -13 2 -31 7 -39 10 -40 14 -301
40 -313 30z"/>
<path d="M2811 6690 c-10 -20 -97 -285 -100 -303 0 -4 -7 -20 -15 -36 -8 -15
-17 -39 -20 -52 -3 -13 -57 -177 -121 -364 -63 -187 -136 -401 -161 -475 -24
-74 -46 -139 -48 -145 -2 -5 -4 -12 -5 -15 -1 -3 -19 -57 -42 -120 -22 -63
-42 -119 -43 -125 -6 -26 -48 -152 -57 -167 -5 -10 -9 -22 -9 -27 0 -5 -5 -22
-12 -38 -13 -33 -12 -28 -22 -73 -5 -19 -12 -39 -16 -45 -4 -5 -12 -26 -18
-45 -5 -19 -13 -43 -17 -53 -7 -16 8 -17 270 -15 l277 3 67 212 c36 116 69
215 73 219 12 11 719 10 728 -1 7 -10 22 -54 100 -302 l42 -133 274 0 c151 0
274 2 274 4 0 2 -36 108 -79 235 -43 127 -77 231 -75 231 3 0 0 9 -6 21 -7 11
-59 161 -116 332 -58 172 -109 321 -113 332 -9 21 -121 353 -125 370 -5 21
-28 91 -36 110 -5 11 -41 117 -81 235 -39 118 -75 222 -79 230 -13 23 -678 23
-689 0z m362 -542 c2 -13 46 -153 96 -313 51 -159 100 -318 111 -351 l18 -61
-243 -1 -243 0 8 27 c5 14 20 64 34 111 14 47 32 103 40 125 8 22 31 94 51
160 20 66 50 159 66 207 16 48 29 94 29 103 0 24 27 18 33 -7z"/>
<path d="M4449 6699 c-6 -3 -9 -168 -9 -425 1 -351 0 -533 -1 -589 0 -5 0 -30
0 -55 0 -25 0 -52 0 -60 -1 -8 -1 -37 0 -65 0 -27 1 -57 0 -65 0 -8 0 -60 0
-115 0 -55 0 -107 0 -115 0 -8 0 -35 0 -60 0 -25 0 -52 0 -60 -1 -8 -1 -37 0
-65 0 -27 1 -57 0 -65 0 -8 1 -60 1 -115 1 -55 1 -104 0 -110 -1 -5 -2 -41 -1
-78 l1 -68 476 2 c363 1 489 4 534 15 33 7 74 16 92 19 54 9 160 49 233 87
263 139 441 411 483 735 9 76 9 332 -1 406 -60 444 -343 743 -787 832 -72 14
-205 19 -578 19 -238 1 -438 -1 -443 -5z m896 -444 c244 -43 368 -182 402
-450 8 -65 8 -233 0 -315 -10 -104 -61 -245 -103 -287 -7 -8 -17 -20 -21 -26
-12 -20 -95 -82 -128 -96 -98 -44 -172 -54 -390 -55 l-150 -1 -2 610 c-1 336
0 615 2 622 5 16 297 15 390 -2z"/>
<path d="M8809 6700 c-1 -3 -2 -479 -3 -1057 l-2 -1053 738 0 738 0 1 23 c3
149 0 380 -6 385 -3 4 -219 7 -478 8 -260 1 -474 2 -477 3 -3 0 -5 97 -5 215
l0 214 187 0 c102 0 191 3 197 6 6 4 11 4 11 -1 0 -8 489 -12 491 -3 1 3 2 96
3 208 1 135 -1 202 -9 203 -5 1 -201 3 -435 4 -234 1 -429 3 -435 4 -6 1 -10
79 -10 213 l0 213 483 3 482 2 1 28 c0 33 0 363 0 377 -1 10 -1470 15 -1472 5z"/>
<path d="M10535 6700 c-1 -3 -2 -96 -2 -207 l0 -203 321 0 322 0 0 -847 0
-848 252 -3 c198 -2 252 0 253 10 0 7 1 390 1 850 l1 838 321 2 321 3 0 205 0
205 -893 0 c-492 0 -895 -2 -897 -5z"/>
</g>
</svg>
